<mxfile host="65bd71144e">
    <diagram id="QRWzqyDsxsc5frreOyh3" name="Page-1">
        <mxGraphModel dx="1191" dy="787" grid="1" gridSize="10" guides="1" tooltips="1" connect="1" arrows="1" fold="1" page="1" pageScale="1" pageWidth="850" pageHeight="1100" math="0" shadow="0">
            <root>
                <mxCell id="0"/>
                <mxCell id="1" parent="0"/>
                <mxCell id="5" value="main.js" style="ellipse;whiteSpace=wrap;html=1;fontColor=#FFFFFF;fillColor=#000000;" vertex="1" parent="1">
                    <mxGeometry x="350" y="50" width="120" height="80" as="geometry"/>
                </mxCell>
                <mxCell id="8" value="SideDishes.js" style="ellipse;whiteSpace=wrap;html=1;fontColor=#FFFFFF;fillColor=#000000;" vertex="1" parent="1">
                    <mxGeometry x="290" y="340" width="120" height="80" as="geometry"/>
                </mxCell>
                <mxCell id="9" value="Entrees.js" style="ellipse;whiteSpace=wrap;html=1;fontColor=#FFFFFF;fillColor=#000000;" vertex="1" parent="1">
                    <mxGeometry x="190" y="280" width="120" height="80" as="geometry"/>
                </mxCell>
                <mxCell id="10" value="Vegetables.js" style="ellipse;whiteSpace=wrap;html=1;fontColor=#FFFFFF;fillColor=#000000;" vertex="1" parent="1">
                    <mxGeometry x="425" y="340" width="120" height="80" as="geometry"/>
                </mxCell>
                <mxCell id="11" value="Sales.js" style="ellipse;whiteSpace=wrap;html=1;fontColor=#FFFFFF;fillColor=#000000;" vertex="1" parent="1">
                    <mxGeometry x="520" y="280" width="120" height="80" as="geometry"/>
                </mxCell>
                <mxCell id="12" value="Database,json" style="ellipse;whiteSpace=wrap;html=1;fontColor=#FFFFFF;fillColor=#000000;" vertex="1" parent="1">
                    <mxGeometry x="270" y="570" width="120" height="80" as="geometry"/>
                </mxCell>
                <mxCell id="13" value="FoodTruck.js" style="ellipse;whiteSpace=wrap;html=1;fontColor=#FFFFFF;fillColor=#000000;" vertex="1" parent="1">
                    <mxGeometry x="350" y="160" width="120" height="80" as="geometry"/>
                </mxCell>
                <mxCell id="18" value="" style="endArrow=classic;html=1;fontColor=#FFFFFF;strokeColor=#FF0000;exitX=0.5;exitY=1;exitDx=0;exitDy=0;entryX=0.5;entryY=0;entryDx=0;entryDy=0;" edge="1" parent="1" source="5" target="13">
                    <mxGeometry width="50" height="50" relative="1" as="geometry">
                        <mxPoint x="400" y="430" as="sourcePoint"/>
                        <mxPoint x="450" y="380" as="targetPoint"/>
                    </mxGeometry>
                </mxCell>
                <mxCell id="19" value="" style="endArrow=classic;html=1;fontColor=#FFFFFF;strokeColor=#FF0000;exitX=0;exitY=1;exitDx=0;exitDy=0;entryX=1;entryY=0;entryDx=0;entryDy=0;" edge="1" parent="1" source="13" target="9">
                    <mxGeometry width="50" height="50" relative="1" as="geometry">
                        <mxPoint x="420" y="140" as="sourcePoint"/>
                        <mxPoint x="420" y="170" as="targetPoint"/>
                    </mxGeometry>
                </mxCell>
                <mxCell id="20" value="" style="endArrow=classic;html=1;fontColor=#FFFFFF;strokeColor=#FF0000;entryX=0.592;entryY=-0.025;entryDx=0;entryDy=0;entryPerimeter=0;" edge="1" parent="1" source="13" target="8">
                    <mxGeometry width="50" height="50" relative="1" as="geometry">
                        <mxPoint x="377.57359312880726" y="238.28427124746167" as="sourcePoint"/>
                        <mxPoint x="302.42640687119274" y="301.7157287525381" as="targetPoint"/>
                    </mxGeometry>
                </mxCell>
                <mxCell id="21" value="" style="endArrow=classic;html=1;fontColor=#FFFFFF;strokeColor=#FF0000;exitX=0.675;exitY=1.025;exitDx=0;exitDy=0;entryX=0.375;entryY=0;entryDx=0;entryDy=0;exitPerimeter=0;entryPerimeter=0;" edge="1" parent="1" source="13" target="10">
                    <mxGeometry width="50" height="50" relative="1" as="geometry">
                        <mxPoint x="387.57359312880726" y="248.28427124746167" as="sourcePoint"/>
                        <mxPoint x="312.42640687119274" y="311.7157287525381" as="targetPoint"/>
                    </mxGeometry>
                </mxCell>
                <mxCell id="22" value="" style="endArrow=classic;html=1;fontColor=#FFFFFF;strokeColor=#FF0000;exitX=1;exitY=1;exitDx=0;exitDy=0;" edge="1" parent="1" source="13" target="11">
                    <mxGeometry width="50" height="50" relative="1" as="geometry">
                        <mxPoint x="397.57359312880726" y="258.2842712474617" as="sourcePoint"/>
                        <mxPoint x="322.42640687119274" y="321.7157287525381" as="targetPoint"/>
                    </mxGeometry>
                </mxCell>
                <mxCell id="23" value="" style="endArrow=classic;html=1;fontColor=#FFFFFF;strokeColor=#FF0000;entryX=0.2;entryY=0.063;entryDx=0;entryDy=0;entryPerimeter=0;exitX=0.5;exitY=1;exitDx=0;exitDy=0;" edge="1" parent="1" source="8" target="12">
                    <mxGeometry width="50" height="50" relative="1" as="geometry">
                        <mxPoint x="406.4465710789027" y="248.9661081481545" as="sourcePoint"/>
                        <mxPoint x="371.03999999999996" y="348" as="targetPoint"/>
                    </mxGeometry>
                </mxCell>
                <mxCell id="24" value="" style="endArrow=classic;html=1;fontColor=#FFFFFF;strokeColor=#FF0000;entryX=1;entryY=0;entryDx=0;entryDy=0;exitX=0.367;exitY=1.038;exitDx=0;exitDy=0;exitPerimeter=0;" edge="1" parent="1" source="10" target="12">
                    <mxGeometry width="50" height="50" relative="1" as="geometry">
                        <mxPoint x="406.4465710789027" y="248.9661081481545" as="sourcePoint"/>
                        <mxPoint x="371.03999999999996" y="348" as="targetPoint"/>
                    </mxGeometry>
                </mxCell>
                <mxCell id="25" value="" style="endArrow=classic;html=1;fontColor=#FFFFFF;strokeColor=#FF0000;exitX=0.333;exitY=1.025;exitDx=0;exitDy=0;entryX=1.017;entryY=0.388;entryDx=0;entryDy=0;entryPerimeter=0;exitPerimeter=0;" edge="1" parent="1" source="11" target="12">
                    <mxGeometry width="50" height="50" relative="1" as="geometry">
                        <mxPoint x="441" y="252" as="sourcePoint"/>
                        <mxPoint x="480" y="350" as="targetPoint"/>
                    </mxGeometry>
                </mxCell>
                <mxCell id="26" value="" style="endArrow=classic;html=1;fontColor=#FFFFFF;strokeColor=#FF0000;entryX=0;entryY=0.5;entryDx=0;entryDy=0;exitX=0.275;exitY=0.963;exitDx=0;exitDy=0;exitPerimeter=0;" edge="1" parent="1" source="9" target="12">
                    <mxGeometry width="50" height="50" relative="1" as="geometry">
                        <mxPoint x="406.4465710789027" y="248.9661081481545" as="sourcePoint"/>
                        <mxPoint x="371.03999999999996" y="348" as="targetPoint"/>
                    </mxGeometry>
                </mxCell>
                <mxCell id="27" value="Actor" style="shape=umlActor;verticalLabelPosition=bottom;verticalAlign=top;html=1;outlineConnect=0;fontColor=#FFFFFF;fillColor=#000000;" vertex="1" parent="1">
                    <mxGeometry x="70" y="130" width="30" height="60" as="geometry"/>
                </mxCell>
                <mxCell id="28" value="I hope I am doing this right." style="shape=callout;whiteSpace=wrap;html=1;perimeter=calloutPerimeter;fontColor=#FFFFFF;fillColor=#000000;" vertex="1" parent="1">
                    <mxGeometry x="50" y="40" width="120" height="80" as="geometry"/>
                </mxCell>
                <mxCell id="29" value="TransientState.js" style="ellipse;whiteSpace=wrap;html=1;fontColor=#FFFFFF;fillColor=#000000;" vertex="1" parent="1">
                    <mxGeometry x="460" y="500" width="120" height="80" as="geometry"/>
                </mxCell>
                <mxCell id="30" value="" style="endArrow=classic;html=1;fontColor=#FFFFFF;strokeColor=#FF0000;entryX=0.808;entryY=0.038;entryDx=0;entryDy=0;entryPerimeter=0;exitX=0.6;exitY=1;exitDx=0;exitDy=0;exitPerimeter=0;" edge="1" parent="1" source="11" target="29">
                    <mxGeometry width="50" height="50" relative="1" as="geometry">
                        <mxPoint x="360" y="430" as="sourcePoint"/>
                        <mxPoint x="304" y="585.04" as="targetPoint"/>
                    </mxGeometry>
                </mxCell>
                <mxCell id="31" value="" style="endArrow=classic;html=1;fontColor=#FFFFFF;strokeColor=#FF0000;exitX=0.5;exitY=1;exitDx=0;exitDy=0;entryX=0.5;entryY=0;entryDx=0;entryDy=0;" edge="1" parent="1" source="10" target="29">
                    <mxGeometry width="50" height="50" relative="1" as="geometry">
                        <mxPoint x="569.96" y="372" as="sourcePoint"/>
                        <mxPoint x="402.03999999999996" y="611.04" as="targetPoint"/>
                    </mxGeometry>
                </mxCell>
                <mxCell id="32" value="" style="endArrow=classic;html=1;fontColor=#FFFFFF;strokeColor=#FF0000;exitX=0.708;exitY=0.963;exitDx=0;exitDy=0;exitPerimeter=0;" edge="1" parent="1" source="8" target="29">
                    <mxGeometry width="50" height="50" relative="1" as="geometry">
                        <mxPoint x="360" y="430" as="sourcePoint"/>
                        <mxPoint x="304" y="585.04" as="targetPoint"/>
                    </mxGeometry>
                </mxCell>
                <mxCell id="33" value="" style="endArrow=classic;html=1;fontColor=#FFFFFF;strokeColor=#FF0000;exitX=0.583;exitY=1;exitDx=0;exitDy=0;exitPerimeter=0;" edge="1" parent="1" source="9" target="29">
                    <mxGeometry width="50" height="50" relative="1" as="geometry">
                        <mxPoint x="233" y="367.03999999999996" as="sourcePoint"/>
                        <mxPoint x="280" y="620" as="targetPoint"/>
                    </mxGeometry>
                </mxCell>
                <mxCell id="34" value="" style="endArrow=classic;html=1;fontColor=#FFFFFF;strokeColor=#FF0000;exitX=0;exitY=1;exitDx=0;exitDy=0;entryX=1.017;entryY=0.588;entryDx=0;entryDy=0;entryPerimeter=0;" edge="1" parent="1" source="29" target="12">
                    <mxGeometry width="50" height="50" relative="1" as="geometry">
                        <mxPoint x="569.96" y="372" as="sourcePoint"/>
                        <mxPoint x="402.03999999999996" y="611.04" as="targetPoint"/>
                    </mxGeometry>
                </mxCell>
            </root>
        </mxGraphModel>
    </diagram>
</mxfile>